<svg xmlns="http://www.w3.org/2000/svg" version="1.1" xmlns:xlink="http://www.w3.org/1999/xlink" viewBox="0 0 200 200"><rect width="200" height="200" fill="url('#gradient')"></rect><defs><linearGradient id="gradient" gradientTransform="rotate(45 0.5 0.5)"><stop offset="0%" stop-color="#19c0ec"></stop><stop offset="100%" stop-color="#bc0f96"></stop></linearGradient></defs><g><g fill="#fafcff" transform="matrix(4.661608497723824,0,0,4.661608497723824,6.860588375914261,134.24314646004547)" stroke="#16f1d0" stroke-width="0"><path d="M13.12-7.47L13.12-6.82Q13.12-4.74 12.34-3.13Q11.57-1.53 10.15-0.67Q8.73 0.20 6.91 0.20Q5.10 0.20 3.69-0.64Q2.29-1.47 1.50-3.03Q0.71-4.58 0.67-6.59L0.67-6.59L0.67-7.39Q0.67-9.48 1.44-11.08Q2.21-12.68 3.64-13.54Q5.07-14.41 6.89-14.41L6.89-14.41Q8.70-14.41 10.12-13.55Q11.53-12.70 12.32-11.11Q13.11-9.52 13.12-7.47L13.12-7.47ZM9.63-6.76L9.63-7.41Q9.63-9.53 8.92-10.63Q8.21-11.73 6.89-11.73L6.89-11.73Q4.32-11.73 4.17-7.86L4.17-7.86L4.16-6.82Q4.16-4.73 4.85-3.60Q5.55-2.48 6.91-2.48L6.91-2.48Q8.21-2.48 8.92-3.58Q9.62-4.69 9.63-6.76L9.63-6.76ZM17.30-10.57L18.95-3.92L20.62-10.57L24.08-10.57L20.63 0L17.28 0L13.83-10.57L17.30-10.57ZM28.54-10.57L28.54 0L25.23 0L25.23-10.57L28.54-10.57ZM25.04-13.29L25.04-13.29Q25.04-13.99 25.55-14.44Q26.05-14.89 26.87-14.89Q27.68-14.89 28.18-14.44Q28.69-13.99 28.69-13.29Q28.69-12.59 28.18-12.14Q27.68-11.69 26.87-11.69Q26.05-11.69 25.55-12.14Q25.04-12.59 25.04-13.29ZM36.09-2.97L36.09-2.97Q36.09-3.39 35.65-3.64Q35.21-3.90 33.98-4.17Q32.75-4.44 31.95-4.89Q31.15-5.33 30.73-5.97Q30.31-6.60 30.31-7.42L30.31-7.42Q30.31-8.88 31.51-9.82Q32.71-10.76 34.66-10.76L34.66-10.76Q36.75-10.76 38.02-9.81Q39.29-8.87 39.29-7.32L39.29-7.32L35.99-7.32Q35.99-8.59 34.65-8.59L34.65-8.59Q34.13-8.59 33.78-8.31Q33.43-8.02 33.43-7.59L33.43-7.59Q33.43-7.15 33.86-6.88Q34.29-6.60 35.23-6.43Q36.17-6.25 36.88-6.01L36.88-6.01Q39.27-5.19 39.27-3.07L39.27-3.07Q39.27-1.62 37.98-0.71Q36.70 0.20 34.66 0.20L34.66 0.20Q33.30 0.20 32.24-0.29Q31.17-0.78 30.58-1.62Q29.98-2.46 29.98-3.39L29.98-3.39L33.06-3.39Q33.08-2.66 33.54-2.32Q34.01-1.98 34.75-1.98L34.75-1.98Q35.42-1.98 35.76-2.26Q36.09-2.53 36.09-2.97Z"></path></g></g></svg>